<svg width="512" height="512" viewBox="0 0 512 512" fill="none" xmlns="http://www.w3.org/2000/svg">
<g clip-path="url(#clip0_2034_74)">
<rect width="512" height="512" rx="128" fill="url(#paint0_linear_2034_74)"/>
<path d="M150.531 377.328C141.078 377.328 132.523 375.023 124.867 370.414C117.211 365.883 111.078 359.75 106.469 352.016C101.938 344.359 99.6719 335.805 99.6719 326.352C99.6719 316.898 101.938 308.344 106.469 300.688C111.078 292.953 117.211 286.82 124.867 282.289C132.523 277.68 141.078 275.375 150.531 275.375C156.391 275.375 161.156 275.844 164.828 276.781C168.5 277.641 171.508 278.695 173.852 279.945C176.273 281.117 178.5 282.172 180.531 283.109C182.562 283.969 184.906 284.398 187.562 284.398C189.672 284.398 192.211 283.656 195.18 282.172L206.195 276.312C211.508 273.422 215.18 271 217.211 269.047C219.32 267.094 220.844 264.398 221.781 260.961L224.359 251.938C226.312 244.672 229.281 238.969 233.266 234.828C237.25 230.609 243.07 227.094 250.727 224.281L354.086 187.016C369.867 181.391 382.875 179.789 393.109 182.211C403.422 184.633 409.789 190.883 412.211 200.961L211 307.602C208.266 309.086 206.195 310.648 204.789 312.289C203.461 313.852 202.602 315.766 202.211 318.031C201.82 320.297 201.625 323.07 201.625 326.352C201.625 335.805 199.32 344.359 194.711 352.016C190.18 359.75 184.047 365.883 176.312 370.414C168.656 375.023 160.062 377.328 150.531 377.328ZM150.531 350.375C154.984 350.375 159.008 349.281 162.602 347.094C166.273 344.906 169.164 342.016 171.273 338.422C173.461 334.75 174.555 330.688 174.555 326.234C174.555 321.859 173.461 317.875 171.273 314.281C169.164 310.609 166.273 307.68 162.602 305.492C159.008 303.305 154.984 302.211 150.531 302.211C146.156 302.211 142.172 303.305 138.578 305.492C134.984 307.68 132.133 310.609 130.023 314.281C127.914 317.875 126.859 321.859 126.859 326.234C126.859 330.688 127.914 334.75 130.023 338.422C132.133 342.016 134.984 344.906 138.578 347.094C142.172 349.281 146.156 350.375 150.531 350.375ZM252.953 261.43C255.688 261.43 258.031 260.531 259.984 258.734C261.938 256.859 262.914 254.555 262.914 251.82C262.914 249.086 261.938 246.781 259.984 244.906C258.031 243.031 255.688 242.094 252.953 242.094C250.453 242.094 248.227 243.031 246.273 244.906C244.32 246.781 243.344 249.086 243.344 251.82C243.344 254.477 244.32 256.742 246.273 258.617C248.227 260.492 250.453 261.43 252.953 261.43ZM150.531 244.086C141.078 244.086 132.523 241.82 124.867 237.289C117.211 232.68 111.078 226.547 106.469 218.891C101.938 211.156 99.6719 202.602 99.6719 193.227C99.6719 183.773 101.938 175.18 106.469 167.445C111.078 159.711 117.211 153.539 124.867 148.93C132.523 144.32 141.078 142.016 150.531 142.016C159.984 142.016 168.578 144.32 176.312 148.93C184.047 153.461 190.18 159.594 194.711 167.328C199.32 175.062 201.625 183.695 201.625 193.227C201.625 196.82 201.859 199.75 202.328 202.016C202.797 204.203 203.734 206.078 205.141 207.641C206.625 209.203 208.852 210.766 211.82 212.328L232.328 223.227V224.281C228.266 227.25 225.141 230.57 222.953 234.242C220.766 237.914 218.812 242.758 217.094 248.773H215.922C215.062 248.227 214.047 247.641 212.875 247.016C211.703 246.312 210.414 245.57 209.008 244.789L195.18 237.289C192.523 235.883 189.984 235.18 187.562 235.18C184.828 235.18 182.406 235.648 180.297 236.586C178.188 237.445 175.961 238.461 173.617 239.633C171.273 240.805 168.305 241.859 164.711 242.797C161.117 243.656 156.391 244.086 150.531 244.086ZM150.531 217.133C154.984 217.133 159.008 216.039 162.602 213.852C166.273 211.664 169.164 208.773 171.273 205.18C173.461 201.508 174.555 197.484 174.555 193.109C174.555 188.656 173.461 184.633 171.273 181.039C169.164 177.367 166.273 174.438 162.602 172.25C159.008 170.062 154.984 168.969 150.531 168.969C146.156 168.969 142.172 170.062 138.578 172.25C134.984 174.438 132.133 177.367 130.023 181.039C127.914 184.633 126.859 188.656 126.859 193.109C126.859 197.484 127.914 201.508 130.023 205.18C132.133 208.773 134.984 211.664 138.578 213.852C142.172 216.039 146.156 217.133 150.531 217.133ZM354.086 331.625L255.766 295.297V293.422L311.078 264.125L412.211 317.445C409.789 327.836 403.461 334.281 393.227 336.781C382.992 339.203 369.945 337.484 354.086 331.625Z" fill="white"/>
</g>
<defs>
<linearGradient id="paint0_linear_2034_74" x1="256" y1="0" x2="256" y2="512" gradientUnits="userSpaceOnUse">
<stop stop-color="#1E6EF4"/>
<stop offset="1" stop-color="#7AACFF"/>
</linearGradient>
<clipPath id="clip0_2034_74">
<rect width="512" height="512" fill="white"/>
</clipPath>
</defs>
</svg>
